<?xml version="1.0" encoding="UTF-8" standalone="no"?>
<!DOCTYPE svg PUBLIC "-//W3C//DTD SVG 1.1//EN"
 "http://www.w3.org/Graphics/SVG/1.1/DTD/svg11.dtd">
<!-- Generated by graphviz version 7.1.0 (20230121.1956)
 -->
<!-- Pages: 1 -->
<svg width="1584pt" height="116pt"
 viewBox="0.00 0.00 1584.44 116.00" xmlns="http://www.w3.org/2000/svg" xmlns:xlink="http://www.w3.org/1999/xlink">
<g id="graph0" class="graph" transform="scale(1 1) rotate(0) translate(4 112)">
<polygon fill="white" stroke="none" points="-4,4 -4,-112 1580.44,-112 1580.44,4 -4,4"/>
<!-- A -->
<g id="node1" class="node">
<title>A</title>
<ellipse fill="none" stroke="black" cx="759.95" cy="-90" rx="42.79" ry="18"/>
<text text-anchor="middle" x="759.95" y="-86.3" font-family="Times,serif" font-size="14.00">Pre&#45;1978</text>
</g>
<!-- C -->
<g id="node3" class="node">
<title>C</title>
<ellipse fill="none" stroke="black" cx="53.95" cy="-18" rx="53.89" ry="18"/>
<text text-anchor="middle" x="53.95" y="-14.3" font-family="Times,serif" font-size="14.00">&lt;1,000 sqft.</text>
</g>
<!-- A&#45;&gt;C -->
<g id="edge1" class="edge">
<title>A&#45;&gt;C</title>
<path fill="none" stroke="black" d="M717.1,-88.15C613.34,-85.5 340.66,-75.07 116.95,-36 112.67,-35.25 108.27,-34.35 103.87,-33.35"/>
<polygon fill="black" stroke="black" points="105.03,-30.03 94.49,-31.08 103.38,-36.84 105.03,-30.03"/>
</g>
<!-- D -->
<g id="node4" class="node">
<title>D</title>
<ellipse fill="none" stroke="black" cx="196.95" cy="-18" rx="71.49" ry="18"/>
<text text-anchor="middle" x="196.95" y="-14.3" font-family="Times,serif" font-size="14.00">1,000&#45;2,000 sqft.</text>
</g>
<!-- A&#45;&gt;D -->
<g id="edge2" class="edge">
<title>A&#45;&gt;D</title>
<path fill="none" stroke="black" d="M717.85,-85.76C633.87,-78.99 439.64,-61.8 277.95,-36 272.09,-35.07 266.02,-33.99 259.96,-32.85"/>
<polygon fill="black" stroke="black" points="261.06,-29.5 250.58,-31.01 259.72,-36.37 261.06,-29.5"/>
</g>
<!-- E -->
<g id="node5" class="node">
<title>E</title>
<ellipse fill="none" stroke="black" cx="357.95" cy="-18" rx="71.49" ry="18"/>
<text text-anchor="middle" x="357.95" y="-14.3" font-family="Times,serif" font-size="14.00">2,000&#45;3,000 sqft.</text>
</g>
<!-- A&#45;&gt;E -->
<g id="edge3" class="edge">
<title>A&#45;&gt;E</title>
<path fill="none" stroke="black" d="M720.06,-82.98C659.27,-73.68 539.85,-54.91 438.95,-36 433.44,-34.97 427.73,-33.86 422.01,-32.71"/>
<polygon fill="black" stroke="black" points="423.02,-29.35 412.52,-30.79 421.62,-36.21 423.02,-29.35"/>
</g>
<!-- F -->
<g id="node6" class="node">
<title>F</title>
<ellipse fill="none" stroke="black" cx="518.95" cy="-18" rx="71.49" ry="18"/>
<text text-anchor="middle" x="518.95" y="-14.3" font-family="Times,serif" font-size="14.00">3,000&#45;4,000 sqft.</text>
</g>
<!-- A&#45;&gt;F -->
<g id="edge4" class="edge">
<title>A&#45;&gt;F</title>
<path fill="none" stroke="black" d="M725.42,-78.97C686.26,-67.6 621.82,-48.88 575.34,-35.38"/>
<polygon fill="black" stroke="black" points="576.56,-32.09 565.98,-32.66 574.61,-38.81 576.56,-32.09"/>
</g>
<!-- G -->
<g id="node7" class="node">
<title>G</title>
<ellipse fill="none" stroke="black" cx="679.95" cy="-18" rx="71.49" ry="18"/>
<text text-anchor="middle" x="679.95" y="-14.3" font-family="Times,serif" font-size="14.00">4,000&#45;5,000 sqft.</text>
</g>
<!-- A&#45;&gt;G -->
<g id="edge5" class="edge">
<title>A&#45;&gt;G</title>
<path fill="none" stroke="black" d="M742.19,-73.46C731.99,-64.54 718.97,-53.14 707.47,-43.08"/>
<polygon fill="black" stroke="black" points="710.02,-40.66 700.19,-36.71 705.41,-45.93 710.02,-40.66"/>
</g>
<!-- H -->
<g id="node8" class="node">
<title>H</title>
<ellipse fill="none" stroke="black" cx="840.95" cy="-18" rx="71.49" ry="18"/>
<text text-anchor="middle" x="840.95" y="-14.3" font-family="Times,serif" font-size="14.00">5,000&#45;8,000 sqft.</text>
</g>
<!-- A&#45;&gt;H -->
<g id="edge6" class="edge">
<title>A&#45;&gt;H</title>
<path fill="none" stroke="black" d="M777.92,-73.46C788.25,-64.54 801.44,-53.14 813.08,-43.08"/>
<polygon fill="black" stroke="black" points="815.18,-45.89 820.46,-36.7 810.6,-40.59 815.18,-45.89"/>
</g>
<!-- I -->
<g id="node9" class="node">
<title>I</title>
<ellipse fill="none" stroke="black" cx="1006.95" cy="-18" rx="76.09" ry="18"/>
<text text-anchor="middle" x="1006.95" y="-14.3" font-family="Times,serif" font-size="14.00">8,000&#45;10,000 sqft.</text>
</g>
<!-- A&#45;&gt;I -->
<g id="edge7" class="edge">
<title>A&#45;&gt;I</title>
<path fill="none" stroke="black" d="M792.6,-78.05C798.99,-75.98 805.67,-73.88 811.95,-72 856.46,-58.68 907.1,-44.96 945.62,-34.82"/>
<polygon fill="black" stroke="black" points="946.4,-38.23 955.19,-32.31 944.63,-31.46 946.4,-38.23"/>
</g>
<!-- J -->
<g id="node10" class="node">
<title>J</title>
<ellipse fill="none" stroke="black" cx="1181.95" cy="-18" rx="80.69" ry="18"/>
<text text-anchor="middle" x="1181.95" y="-14.3" font-family="Times,serif" font-size="14.00">10,000&#45;20,000 sqft.</text>
</g>
<!-- A&#45;&gt;J -->
<g id="edge8" class="edge">
<title>A&#45;&gt;J</title>
<path fill="none" stroke="black" d="M791.86,-77.52C798.44,-75.45 805.37,-73.48 811.95,-72 934.34,-44.38 968.03,-55.65 1091.95,-36 1098.38,-34.98 1105.07,-33.85 1111.76,-32.67"/>
<polygon fill="black" stroke="black" points="1112.26,-36.14 1121.48,-30.92 1111.02,-29.25 1112.26,-36.14"/>
</g>
<!-- K -->
<g id="node11" class="node">
<title>K</title>
<ellipse fill="none" stroke="black" cx="1360.95" cy="-18" rx="80.69" ry="18"/>
<text text-anchor="middle" x="1360.95" y="-14.3" font-family="Times,serif" font-size="14.00">10,000&#45;20,000 sqft.</text>
</g>
<!-- A&#45;&gt;K -->
<g id="edge9" class="edge">
<title>A&#45;&gt;K</title>
<path fill="none" stroke="black" d="M791.53,-77.35C798.19,-75.27 805.24,-73.34 811.95,-72 1013.05,-31.85 1068.7,-63.28 1271.95,-36 1278.7,-35.09 1285.71,-34.01 1292.71,-32.83"/>
<polygon fill="black" stroke="black" points="1292.91,-36.35 1302.16,-31.17 1291.7,-29.45 1292.91,-36.35"/>
</g>
<!-- L -->
<g id="node12" class="node">
<title>L</title>
<ellipse fill="none" stroke="black" cx="1517.95" cy="-18" rx="58.49" ry="18"/>
<text text-anchor="middle" x="1517.95" y="-14.3" font-family="Times,serif" font-size="14.00">&gt;20,000 sqft.</text>
</g>
<!-- A&#45;&gt;L -->
<g id="edge10" class="edge">
<title>A&#45;&gt;L</title>
<path fill="none" stroke="black" d="M791.23,-77.33C797.98,-75.22 805.13,-73.28 811.95,-72 1091.48,-19.36 1169.79,-79.18 1450.95,-36 1455.55,-35.29 1460.3,-34.41 1465.04,-33.42"/>
<polygon fill="black" stroke="black" points="1465.56,-36.89 1474.55,-31.28 1464.02,-30.06 1465.56,-36.89"/>
</g>
<!-- B -->
<g id="node2" class="node">
<title>B</title>
<ellipse fill="none" stroke="black" cx="866.95" cy="-90" rx="46.29" ry="18"/>
<text text-anchor="middle" x="866.95" y="-86.3" font-family="Times,serif" font-size="14.00">Post&#45;1978</text>
</g>
</g>
</svg>
